<svg xmlns="http://www.w3.org/2000/svg" height="640" width="640" version="1.1">
	<g transform="translate(0 -412.36)">
		<g>
			<path fill="#ffffff" stroke="#000000" d="m275.47 474.55q37.5 9.375 53.906 37.5 0 2.3438-7.0312 9.375-4.6875 4.6875-7.0312 9.375 39.844 42.188 112.5 100.78 65.625 51.562 166.41 75 16.406 2.3438 18.75 7.0312 0 4.6875-16.406 7.0312-117.19 23.438-124.22 0-4.6875-4.6875-18.75-18.75-82.031-82.031-150-157.03-124.22 192.19-253.12 243.75-18.75 9.375-21.094 4.6875-2.3438-2.3438 14.062-14.062 133.59-91.406 220.31-241.41 9.375-21.094 7.0312-44.531-2.3438-16.406 4.6875-18.75zm93.75 199.22q21.094 0 28.125 9.375 4.6875 7.0312-14.062 16.406-30.469 9.375-89.062 16.406 21.094 11.719 16.406 32.812-2.3438 16.406-2.3438 28.125 11.719 0 49.219-11.719 16.406-4.6875 23.438-7.0312 21.094-2.3438 35.156 7.0312 9.375 9.375-9.375 16.406-49.219 16.406-98.438 25.781v128.91q25.781-4.6875 65.625-9.375 72.656-9.375 89.062-9.375 28.125 2.3438 49.219 25.781 11.719 18.75-18.75 14.062-60.938-7.0312-171.09-4.6875-84.375 9.375-150 23.438-23.438 4.6875-35.156 4.6875-49.219-23.438-23.438-28.125 7.0312 0 21.094 0 84.375-4.6875 142.97-14.062v-128.91q-124.22 7.0312-75-14.062 51.562-7.0312 75-11.719 0-42.188-9.375-63.281-82.031-2.3438-44.531-14.062 44.531-9.375 91.406-21.094 32.812-7.0312 53.906-11.719zm23.438 145.31q39.844 9.375 44.531 35.156 0 4.6875-9.375 4.6875-16.406-2.3438-28.125 4.6875-100.78 39.844-60.938 9.375 42.188-23.438 49.219-49.219 2.3438-4.6875 4.6875-4.6875zm-208.59 46.875q-11.719-14.062 0-16.406 16.406 0 35.156 11.719 18.75 18.75 16.406 37.5-7.0312 23.438-23.438 4.6875-2.3438-2.3438-4.6875-7.0312-9.375-11.719-9.375-11.719 0-2.3438-14.062-18.75z"/>
		</g>
	</g>
</svg>
